{
  "source": "C:\\Users\\Peter\\Desktop\\stuff\\MIUN\\quantitative_research\\video_compression\\videos\\BVI-HD\\BVI-HD_CDVL_videos\\ORIG\\Rowing_1920x1080_30fps.mp4",
  "output": "C:\\Users\\Peter\\Desktop\\stuff\\MIUN\\quantitative_research\\video_compression\\compressed_videos\\BVI-HD\\hevc\\1\\Rowing_1920x1080_30fps_hevc.mp4",
  "codec": "hevc",
  "ok": "Input #0, mov,mp4,m4a,3gp,3g2,mj2, from 'C:\\Users\\Peter\\Desktop\\stuff\\MIUN\\quantitative_research\\video_compression\\videos\\BVI-HD\\BVI-HD_CDVL_videos\\ORIG\\Rowing_1920x1080_30fps.mp4':\n  Metadata:\n    major_brand     : isom\n    minor_version   : 512\n    compatible_brands: isomiso2avc1mp41\n    encoder         : Lavf54.28.101\n  Duration: 00:00:05.00, start: 0.000000, bitrate: 259220 kb/s\n  Stream #0:0[0x1](und): Video: h264 (High 4:4:4 Predictive) (avc1 / 0x31637661), yuv420p(progressive), 1920x1080, 259216 kb/s, 30 fps, 30 tbr, 30 tbn (default)\n    Metadata:\n      handler_name    : VideoHandler\n      vendor_id       : [0][0][0][0]\n[out#0/mp4 @ 0000016575f9f040] Codec AVOption b:a (set bitrate (in bits/s)) has not been used for any stream. The most likely reason is either wrong type (e.g. a video option with no video streams) or that it is a private option of some decoder which was not actually used for any stream.\nStream mapping:\n  Stream #0:0 -> #0:0 (h264 (native) -> hevc (libx265))\nPress [q] to stop, [?] for help\n[libx265 @ 00000165760575c0] Unknown option: \"aq-mode.\nx265 [info]: HEVC encoder version 4.1+190-8f11c33ac\nx265 [info]: build info [Windows][GCC 15.1.0][64 bit] 10bit\nx265 [info]: using cpu capabilities: MMX2 SSE2Fast LZCNT SSSE3 SSE4.2 AVX FMA3 BMI2 AVX2\nx265 [info]: Main 10 profile, Level-4 (Main tier)\nx265 [info]: Thread pool created using 12 threads\nx265 [info]: Slices                              : 1\nx265 [info]: frame threads / pool features       : 3 / wpp(17 rows)\nx265 [info]: Coding QT: max CU size, min CU size : 64 / 8\nx265 [info]: Residual QT: max TU size, max depth : 32 / 1 inter / 1 intra\nx265 [info]: ME / range / subpel / merge         : star / 57 / 3 / 3\nx265 [info]: Keyframe min / max / scenecut / bias  : 25 / 250 / 40 / 5.00 \nx265 [info]: Lookahead / bframes / badapt        : 25 / 4 / 2\nx265 [info]: b-pyramid / weightp / weightb       : 1 / 1 / 0\nx265 [info]: References / ref-limit  cu / depth  : 4 / on / on\nx265 [info]: AQ: mode / str / qg-size / cu-tree  : 2 / 1.0 / 32 / 1\nx265 [info]: Rate Control / qCompress            : ABR-1000 kbps / 0.60\nx265 [info]: VBV/HRD buffer / max-rate / init    : 1000 / 1000 / 0.750\nx265 [info]: tools: rect limit-modes rd=4 psy-rd=2.00 rdoq=2 psy-rdoq=1.00\nx265 [info]: tools: rskip mode=1 signhide tmvp strong-intra-smoothing lslices=4\nx265 [info]: tools: deblock sao dhdr10-info\nOutput #0, mp4, to 'C:\\Users\\Peter\\Desktop\\stuff\\MIUN\\quantitative_research\\video_compression\\compressed_videos\\BVI-HD\\hevc\\1\\Rowing_1920x1080_30fps_hevc.mp4':\n  Metadata:\n    major_brand     : isom\n    minor_version   : 512\n    compatible_brands: isomiso2avc1mp41\n    encoder         : Lavf62.3.100\n  Stream #0:0(und): Video: hevc (hev1 / 0x31766568), yuv420p10le(tv, progressive), 1920x1080, q=2-31, 1000 kb/s, 30 fps, 15360 tbn (default)\n    Metadata:\n      encoder         : Lavc62.11.100 libx265\n      handler_name    : VideoHandler\n      vendor_id       : [0][0][0][0]\n    Side data:\n      cpb: bitrate max/min/avg: 1000000/0/1000000 buffer size: 1000000 vbv_delay: N/A\nframe=    0 fps=0.0 q=0.0 size=       0KiB time=N/A bitrate=N/A speed=N/A elapsed=0:00:00.51    \nframe=    0 fps=0.0 q=0.0 size=       0KiB time=N/A bitrate=N/A speed=N/A elapsed=0:00:01.04    \nframe=    0 fps=0.0 q=0.0 size=       0KiB time=N/A bitrate=N/A speed=N/A elapsed=0:00:01.57    \nframe=    0 fps=0.0 q=0.0 size=       0KiB time=N/A bitrate=N/A speed=N/A elapsed=0:00:02.10    \nframe=    0 fps=0.0 q=0.0 size=       0KiB time=N/A bitrate=N/A speed=N/A elapsed=0:00:02.63    \nframe=    0 fps=0.0 q=0.0 size=       0KiB time=N/A bitrate=N/A speed=N/A elapsed=0:00:03.21    \nframe=    0 fps=0.0 q=0.0 size=       0KiB time=N/A bitrate=N/A speed=N/A elapsed=0:00:03.74    \nframe=    0 fps=0.0 q=0.0 size=       0KiB time=N/A bitrate=N/A speed=N/A elapsed=0:00:04.24    \nframe=    0 fps=0.0 q=0.0 size=       0KiB time=N/A bitrate=N/A speed=N/A elapsed=0:00:04.76    \nframe=    0 fps=0.0 q=0.0 size=       0KiB time=N/A bitrate=N/A speed=N/A elapsed=0:00:05.28    \nframe=    0 fps=0.0 q=0.0 size=       0KiB time=N/A bitrate=N/A speed=N/A elapsed=0:00:05.79    \nframe=    0 fps=0.0 q=0.0 size=       0KiB time=N/A bitrate=N/A speed=N/A elapsed=0:00:06.32    \nframe=    0 fps=0.0 q=0.0 size=       0KiB time=N/A bitrate=N/A speed=N/A elapsed=0:00:06.86    \nframe=    0 fps=0.0 q=0.0 size=       0KiB time=N/A bitrate=N/A speed=N/A elapsed=0:00:07.43    \nframe=    0 fps=0.0 q=0.0 size=       0KiB time=N/A bitrate=N/A speed=N/A elapsed=0:00:07.97    \nframe=    0 fps=0.0 q=0.0 size=       0KiB time=N/A bitrate=N/A speed=N/A elapsed=0:00:08.52    \nframe=    0 fps=0.0 q=0.0 size=       0KiB time=N/A bitrate=N/A speed=N/A elapsed=0:00:09.04    \nframe=    0 fps=0.0 q=0.0 size=       0KiB time=N/A bitrate=N/A speed=N/A elapsed=0:00:09.55    \nframe=    1 fps=0.1 q=45.6 size=       0KiB time=-00:00:00.03 bitrate=N/A speed=N/A elapsed=0:00:10.08    \nframe=    1 fps=0.1 q=45.6 size=       0KiB time=-00:00:00.03 bitrate=N/A speed=N/A elapsed=0:00:10.62    \nframe=    1 fps=0.1 q=45.6 size=       0KiB time=-00:00:00.03 bitrate=N/A speed=N/A elapsed=0:00:11.15    \nframe=    2 fps=0.2 q=49.7 size=       0KiB time=00:00:00.00 bitrate=N/A speed=   0x elapsed=0:00:11.67    \nframe=    3 fps=0.2 q=51.0 size=       0KiB time=00:00:00.03 bitrate=  10.6kbits/s speed=0.00274x elapsed=0:00:12.18    \nframe=    3 fps=0.2 q=51.0 size=       0KiB time=00:00:00.03 bitrate=  10.6kbits/s speed=0.00262x elapsed=0:00:12.70    \nframe=    3 fps=0.2 q=51.0 size=       0KiB time=00:00:00.03 bitrate=  10.6kbits/s speed=0.00252x elapsed=0:00:13.24    \nframe=    4 fps=0.3 q=51.0 size=       0KiB time=00:00:00.06 bitrate=   5.3kbits/s speed=0.00484x elapsed=0:00:13.76    \nframe=    4 fps=0.3 q=51.0 size=       0KiB time=00:00:00.06 bitrate=   5.3kbits/s speed=0.00467x elapsed=0:00:14.27    \nframe=    4 fps=0.3 q=51.0 size=       0KiB time=00:00:00.06 bitrate=   5.3kbits/s speed=0.0045x elapsed=0:00:14.80    \nframe=    5 fps=0.3 q=51.0 size=       0KiB time=00:00:00.10 bitrate=   3.5kbits/s speed=0.00653x elapsed=0:00:15.32    \nframe=    5 fps=0.3 q=51.0 size=       0KiB time=00:00:00.10 bitrate=   3.5kbits/s speed=0.00631x elapsed=0:00:15.83    \nframe=    5 fps=0.3 q=51.0 size=       0KiB time=00:00:00.10 bitrate=   3.5kbits/s speed=0.00611x elapsed=0:00:16.36    \nframe=    6 fps=0.4 q=51.0 size=       0KiB time=00:00:00.13 bitrate=   2.6kbits/s speed=0.00789x elapsed=0:00:16.89    \nframe=    6 fps=0.3 q=51.0 size=       0KiB time=00:00:00.13 bitrate=   2.6kbits/s speed=0.00766x elapsed=0:00:17.41    \nframe=    6 fps=0.3 q=51.0 size=       0KiB time=00:00:00.13 bitrate=   2.6kbits/s speed=0.00743x elapsed=0:00:17.93    \nframe=    6 fps=0.3 q=51.0 size=       0KiB time=00:00:00.13 bitrate=   2.6kbits/s speed=0.00722x elapsed=0:00:18.47    \nframe=    7 fps=0.4 q=51.0 size=       0KiB time=00:00:00.16 bitrate=   2.1kbits/s speed=0.00877x elapsed=0:00:19.00    \nframe=    7 fps=0.4 q=51.0 size=       0KiB time=00:00:00.16 bitrate=   2.1kbits/s speed=0.00853x elapsed=0:00:19.52    \nframe=    8 fps=0.4 q=50.6 size=       0KiB time=00:00:00.20 bitrate=   1.8kbits/s speed=0.00996x elapsed=0:00:20.07    \nframe=    8 fps=0.4 q=50.6 size=       0KiB time=00:00:00.20 bitrate=   1.8kbits/s speed=0.00971x elapsed=0:00:20.58    \nframe=    8 fps=0.4 q=50.6 size=       0KiB time=00:00:00.20 bitrate=   1.8kbits/s speed=0.00948x elapsed=0:00:21.10    \nframe=    9 fps=0.4 q=51.0 size=       0KiB time=00:00:00.23 bitrate=   1.5kbits/s speed=0.0108x elapsed=0:00:21.65    \nframe=    9 fps=0.4 q=51.0 size=       0KiB time=00:00:00.23 bitrate=   1.5kbits/s speed=0.0105x elapsed=0:00:22.24    \nframe=    9 fps=0.4 q=51.0 size=       0KiB time=00:00:00.23 bitrate=   1.5kbits/s speed=0.0103x elapsed=0:00:22.76    \nframe=    9 fps=0.4 q=51.0 size=       0KiB time=00:00:00.23 bitrate=   1.5kbits/s speed=0.01x elapsed=0:00:23.29    \nframe=    9 fps=0.4 q=51.0 size=       0KiB time=00:00:00.23 bitrate=   1.5kbits/s speed=0.0098x elapsed=0:00:23.80    \nframe=    9 fps=0.4 q=51.0 size=       0KiB time=00:00:00.23 bitrate=   1.5kbits/s speed=0.00959x elapsed=0:00:24.33    \nframe=    9 fps=0.4 q=51.0 size=       0KiB time=00:00:00.23 bitrate=   1.5kbits/s speed=0.00938x elapsed=0:00:24.87    \nframe=   10 fps=0.4 q=51.0 size=       0KiB time=00:00:00.26 bitrate=   1.3kbits/s speed=0.0105x elapsed=0:00:25.43    \nframe=   10 fps=0.4 q=51.0 size=       0KiB time=00:00:00.26 bitrate=   1.3kbits/s speed=0.0103x elapsed=0:00:25.98    \nframe=   10 fps=0.4 q=51.0 size=       0KiB time=00:00:00.26 bitrate=   1.3kbits/s speed=0.0101x elapsed=0:00:26.52    \nframe=   10 fps=0.4 q=51.0 size=       0KiB time=00:00:00.26 bitrate=   1.3kbits/s speed=0.00985x elapsed=0:00:27.06    \nframe=   10 fps=0.4 q=51.0 size=       0KiB time=00:00:00.26 bitrate=   1.3kbits/s speed=0.00964x elapsed=0:00:27.67    \nframe=   10 fps=0.4 q=51.0 size=       0KiB time=00:00:00.26 bitrate=   1.3kbits/s speed=0.0094x elapsed=0:00:28.36    \nframe=   10 fps=0.3 q=51.0 size=       0KiB time=00:00:00.26 bitrate=   1.3kbits/s speed=0.00917x elapsed=0:00:29.07    \nframe=   10 fps=0.3 q=51.0 size=       0KiB time=00:00:00.26 bitrate=   1.3kbits/s speed=0.00897x elapsed=0:00:29.73    \nframe=   10 fps=0.3 q=51.0 size=       0KiB time=00:00:00.26 bitrate=   1.3kbits/s speed=0.00878x elapsed=0:00:30.38    \nframe=   10 fps=0.3 q=51.0 size=       0KiB time=00:00:00.26 bitrate=   1.3kbits/s speed=0.0086x elapsed=0:00:31.00    \nframe=   10 fps=0.3 q=51.0 size=       0KiB time=00:00:00.26 bitrate=   1.3kbits/s speed=0.00845x elapsed=0:00:31.57    \nframe=   11 fps=0.3 q=51.0 size=       0KiB time=00:00:00.30 bitrate=   1.2kbits/s speed=0.00932x elapsed=0:00:32.17    \nframe=   11 fps=0.3 q=51.0 size=       0KiB time=00:00:00.30 bitrate=   1.2kbits/s speed=0.00917x elapsed=0:00:32.69    \nframe=   11 fps=0.3 q=51.0 size=       0KiB time=00:00:00.30 bitrate=   1.2kbits/s speed=0.00902x elapsed=0:00:33.25    \nframe=   11 fps=0.3 q=51.0 size=       0KiB time=00:00:00.30 bitrate=   1.2kbits/s speed=0.00887x elapsed=0:00:33.80    \nframe=   11 fps=0.3 q=51.0 size=       0KiB time=00:00:00.30 bitrate=   1.2kbits/s speed=0.00873x elapsed=0:00:34.36    \nframe=   11 fps=0.3 q=51.0 size=       0KiB time=00:00:00.30 bitrate=   1.2kbits/s speed=0.00859x elapsed=0:00:34.91    \nframe=   12 fps=0.3 q=50.7 size=       0KiB time=00:00:00.33 bitrate=   1.1kbits/s speed=0.0094x elapsed=0:00:35.46    \nframe=   12 fps=0.3 q=50.7 size=       0KiB time=00:00:00.33 bitrate=   1.1kbits/s speed=0.00925x elapsed=0:00:36.01    \nframe=   12 fps=0.3 q=50.7 size=       0KiB time=00:00:00.33 bitrate=   1.1kbits/s speed=0.00911x elapsed=0:00:36.58    \nframe=   13 fps=0.4 q=50.9 size=       0KiB time=00:00:00.36 bitrate=   1.0kbits/s speed=0.00987x elapsed=0:00:37.13    \nframe=   13 fps=0.3 q=50.9 size=       0KiB time=00:00:00.36 bitrate=   1.0kbits/s speed=0.00973x elapsed=0:00:37.66    \nframe=   14 fps=0.4 q=51.0 size=       0KiB time=00:00:00.40 bitrate=   0.9kbits/s speed=0.0105x elapsed=0:00:38.26    \nframe=   14 fps=0.4 q=51.0 size=       0KiB time=00:00:00.40 bitrate=   0.9kbits/s speed=0.0103x elapsed=0:00:38.84    \nframe=   14 fps=0.4 q=51.0 size=       0KiB time=00:00:00.40 bitrate=   0.9kbits/s speed=0.0102x elapsed=0:00:39.40    \nframe=   14 fps=0.4 q=51.0 size=       0KiB time=00:00:00.40 bitrate=   0.9kbits/s speed=0.01x elapsed=0:00:39.93    \nframe=   14 fps=0.3 q=51.0 size=       0KiB time=00:00:00.40 bitrate=   0.9kbits/s speed=0.00989x elapsed=0:00:40.45    \nframe=   14 fps=0.3 q=51.0 size=       0KiB time=00:00:00.40 bitrate=   0.9kbits/s speed=0.00976x elapsed=0:00:40.98    \nframe=   14 fps=0.3 q=51.0 size=       0KiB time=00:00:00.40 bitrate=   0.9kbits/s speed=0.00963x elapsed=0:00:41.54    \nframe=   15 fps=0.4 q=51.0 size=       0KiB time=00:00:00.43 bitrate=   0.8kbits/s speed=0.0103x elapsed=0:00:42.14    \nframe=   15 fps=0.4 q=51.0 size=       0KiB time=00:00:00.43 bitrate=   0.8kbits/s speed=0.0102x elapsed=0:00:42.68    \nframe=   15 fps=0.3 q=51.0 size=       0KiB time=00:00:00.43 bitrate=   0.8kbits/s speed=0.01x elapsed=0:00:43.21    \nframe=   16 fps=0.4 q=50.5 size=       0KiB time=00:00:00.46 bitrate=   0.8kbits/s speed=0.0107x elapsed=0:00:43.72    \nframe=   16 fps=0.4 q=50.5 size=       0KiB time=00:00:00.46 bitrate=   0.8kbits/s speed=0.0105x elapsed=0:00:44.29    \nframe=   16 fps=0.4 q=50.5 size=       0KiB time=00:00:00.46 bitrate=   0.8kbits/s speed=0.0104x elapsed=0:00:44.80    \nframe=   16 fps=0.4 q=50.5 size=       0KiB time=00:00:00.46 bitrate=   0.8kbits/s speed=0.0103x elapsed=0:00:45.32    \nframe=   17 fps=0.4 q=50.9 size=       0KiB time=00:00:00.50 bitrate=   0.7kbits/s speed=0.0109x elapsed=0:00:45.83    \nframe=   17 fps=0.4 q=50.9 size=       0KiB time=00:00:00.50 bitrate=   0.7kbits/s speed=0.0108x elapsed=0:00:46.35    \nframe=   17 fps=0.4 q=50.9 size=       0KiB time=00:00:00.50 bitrate=   0.7kbits/s speed=0.0107x elapsed=0:00:46.87    \nframe=   17 fps=0.4 q=50.9 size=       0KiB time=00:00:00.50 bitrate=   0.7kbits/s speed=0.0106x elapsed=0:00:47.38    \nframe=   18 fps=0.4 q=51.0 size=       0KiB time=00:00:00.53 bitrate=   0.7kbits/s speed=0.0111x elapsed=0:00:47.90    \nframe=   18 fps=0.4 q=51.0 size=       0KiB time=00:00:00.53 bitrate=   0.7kbits/s speed=0.011x elapsed=0:00:48.42    \nframe=   18 fps=0.4 q=51.0 size=       0KiB time=00:00:00.53 bitrate=   0.7kbits/s speed=0.0109x elapsed=0:00:48.94    \nframe=   19 fps=0.4 q=51.0 size=       0KiB time=00:00:00.56 bitrate=   0.6kbits/s speed=0.0115x elapsed=0:00:49.45    \nframe=   19 fps=0.4 q=51.0 size=       0KiB time=00:00:00.56 bitrate=   0.6kbits/s speed=0.0113x elapsed=0:00:49.97    \nframe=   19 fps=0.4 q=51.0 size=       0KiB time=00:00:00.56 bitrate=   0.6kbits/s speed=0.0112x elapsed=0:00:50.52    \nframe=   20 fps=0.4 q=50.3 size=       0KiB time=00:00:00.60 bitrate=   0.6kbits/s speed=0.0118x elapsed=0:00:51.04    \nframe=   20 fps=0.4 q=50.3 size=       0KiB time=00:00:00.60 bitrate=   0.6kbits/s speed=0.0116x elapsed=0:00:51.59    \nframe=   20 fps=0.4 q=50.3 size=       0KiB time=00:00:00.60 bitrate=   0.6kbits/s speed=0.0115x elapsed=0:00:52.10    \nframe=   20 fps=0.4 q=50.3 size=       0KiB time=00:00:00.60 bitrate=   0.6kbits/s speed=0.0114x elapsed=0:00:52.62    \nframe=   21 fps=0.4 q=50.9 size=       0KiB time=00:00:00.63 bitrate=   0.6kbits/s speed=0.0119x elapsed=0:00:53.15    \nframe=   21 fps=0.4 q=50.9 size=       0KiB time=00:00:00.63 bitrate=   0.6kbits/s speed=0.0118x elapsed=0:00:53.69    \nframe=   21 fps=0.4 q=50.9 size=       0KiB time=00:00:00.63 bitrate=   0.6kbits/s speed=0.0117x elapsed=0:00:54.21    \nframe=   21 fps=0.4 q=50.9 size=       0KiB time=00:00:00.63 bitrate=   0.6kbits/s speed=0.0116x elapsed=0:00:54.74    \nframe=   21 fps=0.4 q=50.9 size=       0KiB time=00:00:00.63 bitrate=   0.6kbits/s speed=0.0115x elapsed=0:00:55.27    \nframe=   21 fps=0.4 q=50.9 size=       0KiB time=00:00:00.63 bitrate=   0.6kbits/s speed=0.0113x elapsed=0:00:55.80    \nframe=   22 fps=0.4 q=51.0 size=       0KiB time=00:00:00.66 bitrate=   0.5kbits/s speed=0.0118x elapsed=0:00:56.33    \nframe=   22 fps=0.4 q=51.0 size=       0KiB time=00:00:00.66 bitrate=   0.5kbits/s speed=0.0117x elapsed=0:00:56.87    \nframe=   22 fps=0.4 q=51.0 size=       0KiB time=00:00:00.66 bitrate=   0.5kbits/s speed=0.0116x elapsed=0:00:57.40    \nframe=   22 fps=0.4 q=51.0 size=       0KiB time=00:00:00.66 bitrate=   0.5kbits/s speed=0.0115x elapsed=0:00:57.92    \nframe=   22 fps=0.4 q=51.0 size=       0KiB time=00:00:00.66 bitrate=   0.5kbits/s speed=0.0114x elapsed=0:00:58.45    \nframe=   23 fps=0.4 q=51.0 size=       0KiB time=00:00:00.70 bitrate=   0.5kbits/s speed=0.0119x elapsed=0:00:58.97    \nframe=   23 fps=0.4 q=51.0 size=       0KiB time=00:00:00.70 bitrate=   0.5kbits/s speed=0.0118x elapsed=0:00:59.52    \nframe=   24 fps=0.4 q=50.0 size=       0KiB time=00:00:00.73 bitrate=   0.5kbits/s speed=0.0122x elapsed=0:01:00.04    \nframe=   24 fps=0.4 q=50.0 size=       0KiB time=00:00:00.73 bitrate=   0.5kbits/s speed=0.0121x elapsed=0:01:00.55    \nframe=   24 fps=0.4 q=50.0 size=       0KiB time=00:00:00.73 bitrate=   0.5kbits/s speed=0.012x elapsed=0:01:01.08    \nframe=   24 fps=0.4 q=50.0 size=       0KiB time=00:00:00.73 bitrate=   0.5kbits/s speed=0.0119x elapsed=0:01:01.63    \nframe=   25 fps=0.4 q=50.8 size=       0KiB time=00:00:00.76 bitrate=   0.5kbits/s speed=0.0123x elapsed=0:01:02.15    \nframe=   25 fps=0.4 q=50.8 size=       0KiB time=00:00:00.76 bitrate=   0.5kbits/s speed=0.0122x elapsed=0:01:02.67    \nframe=   25 fps=0.4 q=50.8 size=       0KiB time=00:00:00.76 bitrate=   0.5kbits/s speed=0.0121x elapsed=0:01:03.19    \nframe=   25 fps=0.4 q=50.8 size=       0KiB time=00:00:00.76 bitrate=   0.5kbits/s speed=0.012x elapsed=0:01:03.70    \nframe=   26 fps=0.4 q=50.9 size=       0KiB time=00:00:00.80 bitrate=   0.4kbits/s speed=0.0125x elapsed=0:01:04.22    \nframe=   26 fps=0.4 q=50.9 size=       0KiB time=00:00:00.80 bitrate=   0.4kbits/s speed=0.0124x elapsed=0:01:04.74    \nframe=   26 fps=0.4 q=50.9 size=       0KiB time=00:00:00.80 bitrate=   0.4kbits/s speed=0.0123x elapsed=0:01:05.26    \nframe=   26 fps=0.4 q=50.9 size=       0KiB time=00:00:00.80 bitrate=   0.4kbits/s speed=0.0122x elapsed=0:01:05.78    \nframe=   27 fps=0.4 q=50.9 size=       0KiB time=00:00:00.83 bitrate=   0.4kbits/s speed=0.0126x elapsed=0:01:06.30    \nframe=   27 fps=0.4 q=50.9 size=       0KiB time=00:00:00.83 bitrate=   0.4kbits/s speed=0.0125x elapsed=0:01:06.83    \nframe=   27 fps=0.4 q=50.9 size=       0KiB time=00:00:00.83 bitrate=   0.4kbits/s speed=0.0124x elapsed=0:01:07.36    \nframe=   28 fps=0.4 q=50.4 size=       0KiB time=00:00:00.86 bitrate=   0.4kbits/s speed=0.0128x elapsed=0:01:07.90    \nframe=   28 fps=0.4 q=50.4 size=       0KiB time=00:00:00.86 bitrate=   0.4kbits/s speed=0.0127x elapsed=0:01:08.43    \nframe=   28 fps=0.4 q=50.4 size=       0KiB time=00:00:00.86 bitrate=   0.4kbits/s speed=0.0126x elapsed=0:01:08.96    \nframe=   28 fps=0.4 q=50.4 size=       0KiB time=00:00:00.86 bitrate=   0.4kbits/s speed=0.0125x elapsed=0:01:09.49    \nframe=   28 fps=0.4 q=50.4 size=       0KiB time=00:00:00.86 bitrate=   0.4kbits/s speed=0.0124x elapsed=0:01:10.01    \nframe=   29 fps=0.4 q=50.8 size=       0KiB time=00:00:00.90 bitrate=   0.4kbits/s speed=0.0128x elapsed=0:01:10.54    \nframe=   29 fps=0.4 q=50.8 size=       0KiB time=00:00:00.90 bitrate=   0.4kbits/s speed=0.0127x elapsed=0:01:11.08    \nframe=   30 fps=0.4 q=51.0 size=       0KiB time=00:00:00.93 bitrate=   0.4kbits/s speed=0.013x elapsed=0:01:11.60    \nframe=   30 fps=0.4 q=51.0 size=       0KiB time=00:00:00.93 bitrate=   0.4kbits/s speed=0.0129x elapsed=0:01:12.13    \nframe=   30 fps=0.4 q=51.0 size=       0KiB time=00:00:00.93 bitrate=   0.4kbits/s speed=0.0128x elapsed=0:01:12.65    \nframe=   30 fps=0.4 q=51.0 size=       0KiB time=00:00:00.93 bitrate=   0.4kbits/s speed=0.0128x elapsed=0:01:13.17    \nframe=   31 fps=0.4 q=51.0 size=       0KiB time=00:00:00.96 bitrate=   0.4kbits/s speed=0.0131x elapsed=0:01:13.71    \nframe=   31 fps=0.4 q=51.0 size=       0KiB time=00:00:00.96 bitrate=   0.4kbits/s speed=0.013x elapsed=0:01:14.26    \nframe=   31 fps=0.4 q=51.0 size=       0KiB time=00:00:00.96 bitrate=   0.4kbits/s speed=0.0129x elapsed=0:01:14.81    \nframe=   31 fps=0.4 q=51.0 size=       0KiB time=00:00:00.96 bitrate=   0.4kbits/s speed=0.0128x elapsed=0:01:15.33    \nframe=   31 fps=0.4 q=51.0 size=       0KiB time=00:00:00.96 bitrate=   0.4kbits/s speed=0.0127x elapsed=0:01:15.85    \nframe=   31 fps=0.4 q=51.0 size=       0KiB time=00:00:00.96 bitrate=   0.4kbits/s speed=0.0127x elapsed=0:01:16.37    \nframe=   32 fps=0.4 q=51.0 size=       0KiB time=00:00:01.00 bitrate=   0.4kbits/s speed=0.013x elapsed=0:01:16.89    \nframe=   32 fps=0.4 q=51.0 size=       0KiB time=00:00:01.00 bitrate=   0.4kbits/s speed=0.0129x elapsed=0:01:17.41    \nframe=   32 fps=0.4 q=51.0 size=       0KiB time=00:00:01.00 bitrate=   0.4kbits/s speed=0.0128x elapsed=0:01:17.92    \nframe=   33 fps=0.4 q=49.9 size=       0KiB time=00:00:01.03 bitrate=   0.3kbits/s speed=0.0132x elapsed=0:01:18.46    \nframe=   33 fps=0.4 q=49.9 size=       0KiB time=00:00:01.03 bitrate=   0.3kbits/s speed=0.0131x elapsed=0:01:18.98    \nframe=   33 fps=0.4 q=49.9 size=       0KiB time=00:00:01.03 bitrate=   0.3kbits/s speed=0.013x elapsed=0:01:19.49    \nframe=   33 fps=0.4 q=49.9 size=       0KiB time=00:00:01.03 bitrate=   0.3kbits/s speed=0.0129x elapsed=0:01:20.01    \nframe=   33 fps=0.4 q=49.9 size=       0KiB time=00:00:01.03 bitrate=   0.3kbits/s speed=0.0128x elapsed=0:01:20.53    \nframe=   34 fps=0.4 q=50.5 size=       0KiB time=00:00:01.06 bitrate=   0.3kbits/s speed=0.0132x elapsed=0:01:21.04    \nframe=   34 fps=0.4 q=50.5 size=       0KiB time=00:00:01.06 bitrate=   0.3kbits/s speed=0.0131x elapsed=0:01:21.56    \nframe=   34 fps=0.4 q=50.5 size=       0KiB time=00:00:01.06 bitrate=   0.3kbits/s speed=0.013x elapsed=0:01:22.08    \nframe=   34 fps=0.4 q=50.5 size=       0KiB time=00:00:01.06 bitrate=   0.3kbits/s speed=0.0129x elapsed=0:01:22.60    \nframe=   35 fps=0.4 q=51.0 size=       0KiB time=00:00:01.10 bitrate=   0.3kbits/s speed=0.0132x elapsed=0:01:23.11    \nframe=   35 fps=0.4 q=51.0 size=       0KiB time=00:00:01.10 bitrate=   0.3kbits/s speed=0.0132x elapsed=0:01:23.64    \nframe=   35 fps=0.4 q=51.0 size=       0KiB time=00:00:01.10 bitrate=   0.3kbits/s speed=0.0131x elapsed=0:01:24.17    \nframe=   35 fps=0.4 q=51.0 size=       0KiB time=00:00:01.10 bitrate=   0.3kbits/s speed=0.013x elapsed=0:01:24.69    \nframe=   36 fps=0.4 q=50.9 size=       0KiB time=00:00:01.13 bitrate=   0.3kbits/s speed=0.0133x elapsed=0:01:25.21    \nframe=   36 fps=0.4 q=50.9 size=       0KiB time=00:00:01.13 bitrate=   0.3kbits/s speed=0.0132x elapsed=0:01:25.73    \nframe=   36 fps=0.4 q=50.9 size=       0KiB time=00:00:01.13 bitrate=   0.3kbits/s speed=0.0131x elapsed=0:01:26.24    \nframe=   37 fps=0.4 q=50.8 size=       0KiB time=00:00:01.16 bitrate=   0.3kbits/s speed=0.0134x elapsed=0:01:26.76    \nframe=   37 fps=0.4 q=50.8 size=       0KiB time=00:00:01.16 bitrate=   0.3kbits/s speed=0.0134x elapsed=0:01:27.28    \nframe=   37 fps=0.4 q=50.8 size=       0KiB time=00:00:01.16 bitrate=   0.3kbits/s speed=0.0133x elapsed=0:01:27.80    \nframe=   38 fps=0.4 q=49.8 size=       0KiB time=00:00:01.20 bitrate=   0.3kbits/s speed=0.0136x elapsed=0:01:28.32    \nframe=   38 fps=0.4 q=49.8 size=       0KiB time=00:00:01.20 bitrate=   0.3kbits/s speed=0.0135x elapsed=0:01:28.86    \nframe=   38 fps=0.4 q=49.8 size=       0KiB time=00:00:01.20 bitrate=   0.3kbits/s speed=0.0134x elapsed=0:01:29.36    \nframe=   39 fps=0.4 q=50.2 size=       0KiB time=00:00:01.23 bitrate=   0.3kbits/s speed=0.0137x elapsed=0:01:29.88    \nframe=   39 fps=0.4 q=50.2 size=       0KiB time=00:00:01.23 bitrate=   0.3kbits/s speed=0.0136x elapsed=0:01:30.40    \nframe=   40 fps=0.4 q=50.9 size=       0KiB time=00:00:01.26 bitrate=   0.3kbits/s speed=0.0139x elapsed=0:01:30.92    \nframe=   40 fps=0.4 q=50.9 size=       0KiB time=00:00:01.26 bitrate=   0.3kbits/s speed=0.0139x elapsed=0:01:31.44    \nframe=   40 fps=0.4 q=50.9 size=       0KiB time=00:00:01.26 bitrate=   0.3kbits/s speed=0.0138x elapsed=0:01:31.96    \nframe=   41 fps=0.4 q=50.9 size=       0KiB time=00:00:01.30 bitrate=   0.3kbits/s speed=0.0141x elapsed=0:01:32.48    \nframe=   41 fps=0.4 q=50.9 size=       0KiB time=00:00:01.30 bitrate=   0.3kbits/s speed=0.014x elapsed=0:01:33.00    \nframe=   41 fps=0.4 q=50.9 size=       0KiB time=00:00:01.30 bitrate=   0.3kbits/s speed=0.0139x elapsed=0:01:33.52    \nframe=   41 fps=0.4 q=50.9 size=       0KiB time=00:00:01.30 bitrate=   0.3kbits/s speed=0.0138x elapsed=0:01:34.07    \nframe=   42 fps=0.4 q=50.9 size=       0KiB time=00:00:01.33 bitrate=   0.3kbits/s speed=0.0141x elapsed=0:01:34.59    \nframe=   42 fps=0.4 q=50.9 size=       0KiB time=00:00:01.33 bitrate=   0.3kbits/s speed=0.014x elapsed=0:01:35.11    \nframe=   42 fps=0.4 q=50.9 size=       0KiB time=00:00:01.33 bitrate=   0.3kbits/s speed=0.0139x elapsed=0:01:35.62    \nframe=   42 fps=0.4 q=50.9 size=       0KiB time=00:00:01.33 bitrate=   0.3kbits/s speed=0.0139x elapsed=0:01:36.15    \nframe=   42 fps=0.4 q=50.9 size=       0KiB time=00:00:01.33 bitrate=   0.3kbits/s speed=0.0138x elapsed=0:01:36.67    \nframe=   43 fps=0.4 q=49.6 size=       0KiB time=00:00:01.36 bitrate=   0.3kbits/s speed=0.0141x elapsed=0:01:37.19    \nframe=   43 fps=0.4 q=49.6 size=       0KiB time=00:00:01.36 bitrate=   0.3kbits/s speed=0.014x elapsed=0:01:37.72    \nframe=   44 fps=0.4 q=50.3 size=       0KiB time=00:00:01.40 bitrate=   0.3kbits/s speed=0.0142x elapsed=0:01:38.24    \nframe=   44 fps=0.4 q=50.3 size=       0KiB time=00:00:01.40 bitrate=   0.3kbits/s speed=0.0142x elapsed=0:01:38.76    \nframe=   44 fps=0.4 q=50.3 size=       0KiB time=00:00:01.40 bitrate=   0.3kbits/s speed=0.0141x elapsed=0:01:39.29    \nframe=   44 fps=0.4 q=50.3 size=       0KiB time=00:00:01.40 bitrate=   0.3kbits/s speed=0.014x elapsed=0:01:39.80    \nframe=   44 fps=0.4 q=50.3 size=       0KiB time=00:00:01.40 bitrate=   0.3kbits/s speed=0.0139x elapsed=0:01:40.35    \nframe=   45 fps=0.4 q=50.7 size=       0KiB time=00:00:01.43 bitrate=   0.2kbits/s speed=0.0142x elapsed=0:01:40.87    \nframe=   45 fps=0.4 q=50.7 size=       0KiB time=00:00:01.43 bitrate=   0.2kbits/s speed=0.0141x elapsed=0:01:41.39    \nframe=   46 fps=0.5 q=50.5 size=       0KiB time=00:00:01.46 bitrate=   0.2kbits/s speed=0.0144x elapsed=0:01:41.89    \nframe=   46 fps=0.4 q=50.5 size=       0KiB time=00:00:01.46 bitrate=   0.2kbits/s speed=0.0143x elapsed=0:01:42.42    \nframe=   47 fps=0.5 q=49.6 size=       0KiB time=00:00:01.50 bitrate=   0.2kbits/s speed=0.0146x elapsed=0:01:42.93    \nframe=   47 fps=0.5 q=49.6 size=       0KiB time=00:00:01.50 bitrate=   0.2kbits/s speed=0.0145x elapsed=0:01:43.44    \nframe=   48 fps=0.5 q=49.9 size=       0KiB time=00:00:01.53 bitrate=   0.2kbits/s speed=0.0147x elapsed=0:01:43.96    \nframe=   48 fps=0.5 q=49.9 size=       0KiB time=00:00:01.53 bitrate=   0.2kbits/s speed=0.0147x elapsed=0:01:44.48    \nframe=   49 fps=0.5 q=50.4 size=       0KiB time=00:00:01.56 bitrate=   0.2kbits/s speed=0.0149x elapsed=0:01:44.99    \nframe=   49 fps=0.5 q=50.4 size=       0KiB time=00:00:01.56 bitrate=   0.2kbits/s speed=0.0148x elapsed=0:01:45.51    \nframe=   50 fps=0.5 q=50.7 size=       0KiB time=00:00:01.60 bitrate=   0.2kbits/s speed=0.0151x elapsed=0:01:46.02    \nframe=   50 fps=0.5 q=50.7 size=       0KiB time=00:00:01.60 bitrate=   0.2kbits/s speed=0.015x elapsed=0:01:46.54    \nframe=   51 fps=0.5 q=50.8 size=       0KiB time=00:00:01.63 bitrate=   0.2kbits/s speed=0.0153x elapsed=0:01:47.06    \nframe=   51 fps=0.5 q=50.8 size=       0KiB time=00:00:01.63 bitrate=   0.2kbits/s speed=0.0152x elapsed=0:01:47.57    \nframe=   52 fps=0.5 q=49.2 size=       0KiB time=00:00:01.66 bitrate=   0.2kbits/s speed=0.0154x elapsed=0:01:48.09    \nframe=   53 fps=0.5 q=49.4 size=       0KiB time=00:00:01.70 bitrate=   0.2kbits/s speed=0.0157x elapsed=0:01:48.60    \nframe=   53 fps=0.5 q=49.4 size=       0KiB time=00:00:01.70 bitrate=   0.2kbits/s speed=0.0156x elapsed=0:01:49.12    \nframe=   54 fps=0.5 q=50.9 size=       0KiB time=00:00:01.73 bitrate=   0.2kbits/s speed=0.0158x elapsed=0:01:49.63    \nframe=   54 fps=0.5 q=50.9 size=       0KiB time=00:00:01.73 bitrate=   0.2kbits/s speed=0.0157x elapsed=0:01:50.16    \nframe=   54 fps=0.5 q=50.9 size=       0KiB time=00:00:01.73 bitrate=   0.2kbits/s speed=0.0157x elapsed=0:01:50.68    \nframe=   55 fps=0.5 q=50.7 size=       0KiB time=00:00:01.76 bitrate=   0.2kbits/s speed=0.0159x elapsed=0:01:51.19    \nframe=   55 fps=0.5 q=50.7 size=       0KiB time=00:00:01.76 bitrate=   0.2kbits/s speed=0.0158x elapsed=0:01:51.72    \nframe=   56 fps=0.5 q=50.9 size=       0KiB time=00:00:01.80 bitrate=   0.2kbits/s speed=0.016x elapsed=0:01:52.23    \nframe=   57 fps=0.5 q=49.6 size=       0KiB time=00:00:01.83 bitrate=   0.2kbits/s speed=0.0163x elapsed=0:01:52.74    \nframe=   57 fps=0.5 q=49.6 size=       0KiB time=00:00:01.83 bitrate=   0.2kbits/s speed=0.0162x elapsed=0:01:53.26    \nframe=   58 fps=0.5 q=49.2 size=       0KiB time=00:00:01.86 bitrate=   0.2kbits/s speed=0.0164x elapsed=0:01:53.77    \nframe=   58 fps=0.5 q=49.2 size=       0KiB time=00:00:01.86 bitrate=   0.2kbits/s speed=0.0163x elapsed=0:01:54.30    \nframe=   59 fps=0.5 q=51.0 size=       0KiB time=00:00:01.90 bitrate=   0.2kbits/s speed=0.0165x elapsed=0:01:54.81    \nframe=   59 fps=0.5 q=51.0 size=       0KiB time=00:00:01.90 bitrate=   0.2kbits/s speed=0.0165x elapsed=0:01:55.33    \nframe=   60 fps=0.5 q=50.8 size=       0KiB time=00:00:01.93 bitrate=   0.2kbits/s speed=0.0167x elapsed=0:01:55.83    \nframe=   60 fps=0.5 q=50.8 size=       0KiB time=00:00:01.93 bitrate=   0.2kbits/s speed=0.0166x elapsed=0:01:56.35    \nframe=   61 fps=0.5 q=50.4 size=       0KiB time=00:00:01.96 bitrate=   0.2kbits/s speed=0.0168x elapsed=0:01:56.88    \nframe=   62 fps=0.5 q=49.5 size=       0KiB time=00:00:02.00 bitrate=   0.2kbits/s speed=0.017x elapsed=0:01:57.39    \nframe=   62 fps=0.5 q=49.5 size=       0KiB time=00:00:02.00 bitrate=   0.2kbits/s speed=0.017x elapsed=0:01:57.91    \nframe=   63 fps=0.5 q=49.8 size=       0KiB time=00:00:02.03 bitrate=   0.2kbits/s speed=0.0172x elapsed=0:01:58.42    \nframe=   64 fps=0.5 q=50.6 size=       0KiB time=00:00:02.06 bitrate=   0.2kbits/s speed=0.0174x elapsed=0:01:58.93    \nframe=   64 fps=0.5 q=50.6 size=       0KiB time=00:00:02.06 bitrate=   0.2kbits/s speed=0.0173x elapsed=0:01:59.44    \nframe=   65 fps=0.5 q=50.6 size=       0KiB time=00:00:02.10 bitrate=   0.2kbits/s speed=0.0175x elapsed=0:01:59.96    \nframe=   65 fps=0.5 q=50.6 size=       0KiB time=00:00:02.10 bitrate=   0.2kbits/s speed=0.0174x elapsed=0:02:00.48    \nframe=   66 fps=0.5 q=48.8 size=       0KiB time=00:00:02.13 bitrate=   0.2kbits/s speed=0.0176x elapsed=0:02:01.00    \nframe=   67 fps=0.6 q=49.7 size=     256KiB time=00:00:02.16 bitrate= 968.1kbits/s speed=0.0178x elapsed=0:02:01.51    \nframe=   67 fps=0.5 q=49.7 size=     256KiB time=00:00:02.16 bitrate= 968.1kbits/s speed=0.0178x elapsed=0:02:02.02    \nframe=   68 fps=0.6 q=50.8 size=     256KiB time=00:00:02.20 bitrate= 953.4kbits/s speed=0.018x elapsed=0:02:02.54    \nframe=   69 fps=0.6 q=50.7 size=     256KiB time=00:00:02.23 bitrate= 939.2kbits/s speed=0.0181x elapsed=0:02:03.05    \nframe=   69 fps=0.6 q=50.7 size=     256KiB time=00:00:02.23 bitrate= 939.2kbits/s speed=0.0181x elapsed=0:02:03.57    \nframe=   70 fps=0.6 q=50.8 size=     256KiB time=00:00:02.26 bitrate= 925.4kbits/s speed=0.0183x elapsed=0:02:04.09    \nframe=   70 fps=0.6 q=50.8 size=     256KiB time=00:00:02.26 bitrate= 925.4kbits/s speed=0.0182x elapsed=0:02:04.61    \nframe=   71 fps=0.6 q=49.0 size=     256KiB time=00:00:02.30 bitrate= 912.0kbits/s speed=0.0184x elapsed=0:02:05.12    \nframe=   72 fps=0.6 q=50.0 size=     256KiB time=00:00:02.33 bitrate= 898.9kbits/s speed=0.0186x elapsed=0:02:05.64    \nframe=   73 fps=0.6 q=50.7 size=     256KiB time=00:00:02.36 bitrate= 886.3kbits/s speed=0.0188x elapsed=0:02:06.15    \nframe=   74 fps=0.6 q=50.4 size=     256KiB time=00:00:02.40 bitrate= 874.0kbits/s speed=0.0189x elapsed=0:02:06.66    \nframe=   74 fps=0.6 q=50.4 size=     256KiB time=00:00:02.40 bitrate= 874.0kbits/s speed=0.0189x elapsed=0:02:07.18    \nframe=   75 fps=0.6 q=48.7 size=     256KiB time=00:00:02.43 bitrate= 862.0kbits/s speed=0.0191x elapsed=0:02:07.69    \nframe=   75 fps=0.6 q=48.7 size=     256KiB time=00:00:02.43 bitrate= 862.0kbits/s speed=0.019x elapsed=0:02:08.22    \nframe=   75 fps=0.6 q=48.7 size=     256KiB time=00:00:02.43 bitrate= 862.0kbits/s speed=0.0189x elapsed=0:02:08.73    \nframe=   75 fps=0.6 q=48.7 size=     256KiB time=00:00:02.43 bitrate= 862.0kbits/s speed=0.0188x elapsed=0:02:09.25    \nframe=   75 fps=0.6 q=48.7 size=     256KiB time=00:00:02.43 bitrate= 862.0kbits/s speed=0.0187x elapsed=0:02:09.79    \nframe=   76 fps=0.6 q=49.2 size=     256KiB time=00:00:02.46 bitrate= 850.3kbits/s speed=0.0189x elapsed=0:02:10.31    \nframe=   76 fps=0.6 q=49.2 size=     256KiB time=00:00:02.46 bitrate= 850.3kbits/s speed=0.0188x elapsed=0:02:10.86    \nframe=   76 fps=0.6 q=49.2 size=     256KiB time=00:00:02.46 bitrate= 850.3kbits/s speed=0.0188x elapsed=0:02:11.40    \nframe=   76 fps=0.6 q=49.2 size=     256KiB time=00:00:02.46 bitrate= 850.3kbits/s speed=0.0187x elapsed=0:02:11.92    \nframe=   77 fps=0.6 q=50.5 size=     256KiB time=00:00:02.46 bitrate= 850.3kbits/s speed=0.0186x elapsed=0:02:12.45    \nframe=   77 fps=0.6 q=50.5 size=     256KiB time=00:00:02.50 bitrate= 839.0kbits/s speed=0.0188x elapsed=0:02:12.98    \nframe=   78 fps=0.6 q=50.2 size=     256KiB time=00:00:02.53 bitrate= 828.0kbits/s speed=0.019x elapsed=0:02:13.52    \nframe=   78 fps=0.6 q=50.2 size=     256KiB time=00:00:02.53 bitrate= 828.0kbits/s speed=0.0189x elapsed=0:02:14.03    \nframe=   78 fps=0.6 q=50.2 size=     256KiB time=00:00:02.53 bitrate= 828.0kbits/s speed=0.0188x elapsed=0:02:14.55    \nframe=   78 fps=0.6 q=50.2 size=     256KiB time=00:00:02.53 bitrate= 828.0kbits/s speed=0.0188x elapsed=0:02:15.06    \nframe=   78 fps=0.6 q=50.2 size=     256KiB time=00:00:02.53 bitrate= 828.0kbits/s speed=0.0187x elapsed=0:02:15.59    \nframe=   78 fps=0.6 q=50.2 size=     256KiB time=00:00:02.53 bitrate= 828.0kbits/s speed=0.0186x elapsed=0:02:16.13    \nframe=   78 fps=0.6 q=50.2 size=     256KiB time=00:00:02.53 bitrate= 828.0kbits/s speed=0.0185x elapsed=0:02:16.67    \nframe=   78 fps=0.6 q=50.2 size=     256KiB time=00:00:02.53 bitrate= 828.0kbits/s speed=0.0185x elapsed=0:02:17.18    \nframe=   78 fps=0.6 q=50.2 size=     256KiB time=00:00:02.53 bitrate= 828.0kbits/s speed=0.0184x elapsed=0:02:17.72    \nframe=   78 fps=0.6 q=50.2 size=     256KiB time=00:00:02.53 bitrate= 828.0kbits/s speed=0.0183x elapsed=0:02:18.25    \nframe=   79 fps=0.6 q=50.3 size=     256KiB time=00:00:02.56 bitrate= 817.2kbits/s speed=0.0185x elapsed=0:02:18.79    \nframe=   79 fps=0.6 q=50.3 size=     256KiB time=00:00:02.56 bitrate= 817.2kbits/s speed=0.0184x elapsed=0:02:19.32    \nframe=   79 fps=0.6 q=50.3 size=     256KiB time=00:00:02.56 bitrate= 817.2kbits/s speed=0.0184x elapsed=0:02:19.84    \nframe=   80 fps=0.6 q=48.4 size=     256KiB time=00:00:02.60 bitrate= 806.7kbits/s speed=0.0185x elapsed=0:02:20.37    \nframe=   80 fps=0.6 q=48.4 size=     256KiB time=00:00:02.60 bitrate= 806.7kbits/s speed=0.0185x elapsed=0:02:20.90    \nframe=   81 fps=0.6 q=48.5 size=     256KiB time=00:00:02.63 bitrate= 796.5kbits/s speed=0.0186x elapsed=0:02:21.42    \nframe=   81 fps=0.6 q=48.5 size=     256KiB time=00:00:02.63 bitrate= 796.5kbits/s speed=0.0186x elapsed=0:02:21.95    \nframe=   82 fps=0.6 q=50.3 size=     256KiB time=00:00:02.66 bitrate= 786.6kbits/s speed=0.0187x elapsed=0:02:22.48    \nframe=   82 fps=0.6 q=50.3 size=     256KiB time=00:00:02.66 bitrate= 786.6kbits/s speed=0.0186x elapsed=0:02:23.03    \nframe=   83 fps=0.6 q=49.7 size=     256KiB time=00:00:02.70 bitrate= 776.9kbits/s speed=0.0188x elapsed=0:02:23.56    \nframe=   83 fps=0.6 q=49.7 size=     256KiB time=00:00:02.70 bitrate= 776.9kbits/s speed=0.0187x elapsed=0:02:24.09    \nframe=   83 fps=0.6 q=49.7 size=     256KiB time=00:00:02.70 bitrate= 776.9kbits/s speed=0.0187x elapsed=0:02:24.60    \nframe=   84 fps=0.6 q=49.9 size=     256KiB time=00:00:02.73 bitrate= 767.4kbits/s speed=0.0188x elapsed=0:02:25.12    \nframe=   84 fps=0.6 q=49.9 size=     256KiB time=00:00:02.73 bitrate= 767.4kbits/s speed=0.0188x elapsed=0:02:25.65    \nframe=   84 fps=0.6 q=49.9 size=     256KiB time=00:00:02.73 bitrate= 767.4kbits/s speed=0.0187x elapsed=0:02:26.16    \nframe=   85 fps=0.6 q=48.7 size=     256KiB time=00:00:02.76 bitrate= 758.1kbits/s speed=0.0189x elapsed=0:02:26.68    \nframe=   85 fps=0.6 q=48.7 size=     256KiB time=00:00:02.76 bitrate= 758.1kbits/s speed=0.0188x elapsed=0:02:27.20    \nframe=   86 fps=0.6 q=48.4 size=     256KiB time=00:00:02.80 bitrate= 749.1kbits/s speed=0.019x elapsed=0:02:27.73    \nframe=   86 fps=0.6 q=48.4 size=     256KiB time=00:00:02.80 bitrate= 749.1kbits/s speed=0.0189x elapsed=0:02:28.26    \nframe=   86 fps=0.6 q=48.4 size=     256KiB time=00:00:02.80 bitrate= 749.1kbits/s speed=0.0188x elapsed=0:02:28.80    \nframe=   87 fps=0.6 q=50.0 size=     256KiB time=00:00:02.83 bitrate= 740.3kbits/s speed=0.019x elapsed=0:02:29.30    \nframe=   87 fps=0.6 q=50.0 size=     256KiB time=00:00:02.83 bitrate= 740.3kbits/s speed=0.0189x elapsed=0:02:29.85    \nframe=   88 fps=0.6 q=50.2 size=     256KiB time=00:00:02.86 bitrate= 731.7kbits/s speed=0.0191x elapsed=0:02:30.36    \nframe=   88 fps=0.6 q=50.2 size=     256KiB time=00:00:02.86 bitrate= 731.7kbits/s speed=0.019x elapsed=0:02:30.89    \nframe=   88 fps=0.6 q=50.2 size=     256KiB time=00:00:02.86 bitrate= 731.7kbits/s speed=0.0189x elapsed=0:02:31.42    \nframe=   89 fps=0.6 q=50.2 size=     256KiB time=00:00:02.90 bitrate= 723.3kbits/s speed=0.0191x elapsed=0:02:31.93    \nframe=   90 fps=0.6 q=48.3 size=     256KiB time=00:00:02.93 bitrate= 715.1kbits/s speed=0.0192x elapsed=0:02:32.44    \nframe=   90 fps=0.6 q=48.3 size=     256KiB time=00:00:02.93 bitrate= 715.1kbits/s speed=0.0192x elapsed=0:02:32.96    \nframe=   90 fps=0.6 q=48.3 size=     256KiB time=00:00:02.93 bitrate= 715.1kbits/s speed=0.0191x elapsed=0:02:33.54    \nframe=   90 fps=0.6 q=48.3 size=     256KiB time=00:00:02.93 bitrate= 715.1kbits/s speed=0.019x elapsed=0:02:34.07    \nframe=   90 fps=0.6 q=48.3 size=     256KiB time=00:00:02.93 bitrate= 715.1kbits/s speed=0.019x elapsed=0:02:34.58    \nframe=   90 fps=0.6 q=48.3 size=     256KiB time=00:00:02.93 bitrate= 715.1kbits/s speed=0.0189x elapsed=0:02:35.11    \nframe=   91 fps=0.6 q=49.2 size=     256KiB time=00:00:02.96 bitrate= 707.0kbits/s speed=0.0191x elapsed=0:02:35.63    \nframe=   91 fps=0.6 q=49.2 size=     256KiB time=00:00:02.96 bitrate= 707.0kbits/s speed=0.019x elapsed=0:02:36.15    \nframe=   92 fps=0.6 q=49.9 size=     256KiB time=00:00:03.00 bitrate= 699.2kbits/s speed=0.0191x elapsed=0:02:36.67    \nframe=   92 fps=0.6 q=49.9 size=     256KiB time=00:00:03.00 bitrate= 699.2kbits/s speed=0.0191x elapsed=0:02:37.18    \nframe=   92 fps=0.6 q=49.9 size=     256KiB time=00:00:03.00 bitrate= 699.2kbits/s speed=0.019x elapsed=0:02:37.70    \nframe=   93 fps=0.6 q=50.4 size=     256KiB time=00:00:03.03 bitrate= 691.5kbits/s speed=0.0192x elapsed=0:02:38.26    \nframe=   93 fps=0.6 q=50.4 size=     256KiB time=00:00:03.03 bitrate= 691.5kbits/s speed=0.0191x elapsed=0:02:38.77    \nframe=   94 fps=0.6 q=50.4 size=     256KiB time=00:00:03.06 bitrate= 684.0kbits/s speed=0.0193x elapsed=0:02:39.29    \nframe=   95 fps=0.6 q=48.3 size=     256KiB time=00:00:03.10 bitrate= 676.6kbits/s speed=0.0194x elapsed=0:02:39.80    \nframe=   95 fps=0.6 q=48.3 size=     256KiB time=00:00:03.10 bitrate= 676.6kbits/s speed=0.0193x elapsed=0:02:40.32    \nframe=   95 fps=0.6 q=48.3 size=     256KiB time=00:00:03.10 bitrate= 676.6kbits/s speed=0.0193x elapsed=0:02:40.85    \nframe=   95 fps=0.6 q=48.3 size=     256KiB time=00:00:03.10 bitrate= 676.6kbits/s speed=0.0192x elapsed=0:02:41.36    \nframe=   95 fps=0.6 q=48.3 size=     256KiB time=00:00:03.10 bitrate= 676.6kbits/s speed=0.0191x elapsed=0:02:41.88    \nframe=   95 fps=0.6 q=48.3 size=     256KiB time=00:00:03.10 bitrate= 676.6kbits/s speed=0.0191x elapsed=0:02:42.42    \nframe=   96 fps=0.6 q=49.0 size=     256KiB time=00:00:03.13 bitrate= 669.4kbits/s speed=0.0192x elapsed=0:02:42.95    \nframe=   96 fps=0.6 q=49.0 size=     256KiB time=00:00:03.13 bitrate= 669.4kbits/s speed=0.0192x elapsed=0:02:43.47    \nframe=   96 fps=0.6 q=49.0 size=     256KiB time=00:00:03.13 bitrate= 669.4kbits/s speed=0.0191x elapsed=0:02:44.00    \nframe=   96 fps=0.6 q=49.0 size=     256KiB time=00:00:03.13 bitrate= 669.4kbits/s speed=0.019x elapsed=0:02:44.51    \nframe=   96 fps=0.6 q=49.0 size=     256KiB time=00:00:03.13 bitrate= 669.4kbits/s speed=0.019x elapsed=0:02:45.06    \nframe=   96 fps=0.6 q=49.0 size=     256KiB time=00:00:03.13 bitrate= 669.4kbits/s speed=0.0189x elapsed=0:02:45.66    \nframe=   96 fps=0.6 q=49.0 size=     256KiB time=00:00:03.13 bitrate= 669.4kbits/s speed=0.0188x elapsed=0:02:46.25    \nframe=   97 fps=0.6 q=50.4 size=     256KiB time=00:00:03.16 bitrate= 662.4kbits/s speed=0.019x elapsed=0:02:46.84    \nframe=   97 fps=0.6 q=50.4 size=     256KiB time=00:00:03.16 bitrate= 662.4kbits/s speed=0.0189x elapsed=0:02:47.40    \nframe=   97 fps=0.6 q=50.4 size=     256KiB time=00:00:03.16 bitrate= 662.4kbits/s speed=0.0189x elapsed=0:02:47.94    \nframe=   97 fps=0.6 q=50.4 size=     256KiB time=00:00:03.16 bitrate= 662.4kbits/s speed=0.0188x elapsed=0:02:48.47    \nframe=   97 fps=0.6 q=50.4 size=     256KiB time=00:00:03.16 bitrate= 662.4kbits/s speed=0.0187x elapsed=0:02:49.01    \nframe=   97 fps=0.6 q=50.4 size=     256KiB time=00:00:03.16 bitrate= 662.4kbits/s speed=0.0187x elapsed=0:02:49.55    \nframe=   98 fps=0.6 q=50.2 size=     256KiB time=00:00:03.20 bitrate= 655.5kbits/s speed=0.0188x elapsed=0:02:50.07    \nframe=   98 fps=0.6 q=50.2 size=     256KiB time=00:00:03.20 bitrate= 655.5kbits/s speed=0.0188x elapsed=0:02:50.58    \nframe=   98 fps=0.6 q=50.2 size=     256KiB time=00:00:03.20 bitrate= 655.5kbits/s speed=0.0187x elapsed=0:02:51.11    \nframe=   98 fps=0.6 q=50.2 size=     256KiB time=00:00:03.20 bitrate= 655.5kbits/s speed=0.0186x elapsed=0:02:51.64    \nframe=   99 fps=0.6 q=49.7 size=     256KiB time=00:00:03.23 bitrate= 648.7kbits/s speed=0.0188x elapsed=0:02:52.21    \nframe=   99 fps=0.6 q=49.7 size=     256KiB time=00:00:03.23 bitrate= 648.7kbits/s speed=0.0187x elapsed=0:02:52.73    \nframe=   99 fps=0.6 q=49.7 size=     256KiB time=00:00:03.23 bitrate= 648.7kbits/s speed=0.0187x elapsed=0:02:53.24    \nframe=   99 fps=0.6 q=49.7 size=     256KiB time=00:00:03.23 bitrate= 648.7kbits/s speed=0.0186x elapsed=0:02:53.77    \nframe=  100 fps=0.6 q=48.4 size=     256KiB time=00:00:03.26 bitrate= 642.1kbits/s speed=0.0187x elapsed=0:02:54.29    \nframe=  101 fps=0.6 q=48.9 size=     256KiB time=00:00:03.30 bitrate= 635.6kbits/s speed=0.0189x elapsed=0:02:54.84    \nframe=  101 fps=0.6 q=48.9 size=     256KiB time=00:00:03.30 bitrate= 635.6kbits/s speed=0.0188x elapsed=0:02:55.36    \nframe=  101 fps=0.6 q=48.9 size=     256KiB time=00:00:03.30 bitrate= 635.6kbits/s speed=0.0188x elapsed=0:02:55.87    \nframe=  102 fps=0.6 q=49.5 size=     256KiB time=00:00:03.33 bitrate= 629.3kbits/s speed=0.0189x elapsed=0:02:56.38    \nframe=  102 fps=0.6 q=49.5 size=     256KiB time=00:00:03.33 bitrate= 629.3kbits/s speed=0.0188x elapsed=0:02:56.90    \nframe=  103 fps=0.6 q=50.2 size=     256KiB time=00:00:03.36 bitrate= 623.0kbits/s speed=0.019x elapsed=0:02:57.41    \nframe=  103 fps=0.6 q=50.2 size=     256KiB time=00:00:03.36 bitrate= 623.0kbits/s speed=0.0189x elapsed=0:02:57.93    \nframe=  104 fps=0.6 q=50.4 size=     256KiB time=00:00:03.40 bitrate= 616.9kbits/s speed=0.0191x elapsed=0:02:58.45    \nframe=  104 fps=0.6 q=50.4 size=     256KiB time=00:00:03.40 bitrate= 616.9kbits/s speed=0.019x elapsed=0:02:59.00    \nframe=  104 fps=0.6 q=50.4 size=     256KiB time=00:00:03.40 bitrate= 616.9kbits/s speed=0.0189x elapsed=0:02:59.58    \nframe=  104 fps=0.6 q=50.4 size=     256KiB time=00:00:03.40 bitrate= 616.9kbits/s speed=0.0189x elapsed=0:03:00.11    \nframe=  105 fps=0.6 q=48.2 size=     256KiB time=00:00:03.43 bitrate= 610.9kbits/s speed=0.019x elapsed=0:03:00.61    \nframe=  105 fps=0.6 q=48.2 size=     256KiB time=00:00:03.43 bitrate= 610.9kbits/s speed=0.019x elapsed=0:03:01.13    \nframe=  105 fps=0.6 q=48.2 size=     256KiB time=00:00:03.43 bitrate= 610.9kbits/s speed=0.0189x elapsed=0:03:01.66    \nframe=  105 fps=0.6 q=48.2 size=     256KiB time=00:00:03.43 bitrate= 610.9kbits/s speed=0.0188x elapsed=0:03:02.18    \nframe=  106 fps=0.6 q=48.7 size=     256KiB time=00:00:03.46 bitrate= 605.0kbits/s speed=0.019x elapsed=0:03:02.70    \nframe=  106 fps=0.6 q=48.7 size=     256KiB time=00:00:03.46 bitrate= 605.0kbits/s speed=0.0189x elapsed=0:03:03.22    \nframe=  106 fps=0.6 q=48.7 size=     256KiB time=00:00:03.46 bitrate= 605.0kbits/s speed=0.0189x elapsed=0:03:03.74    \nframe=  106 fps=0.6 q=48.7 size=     256KiB time=00:00:03.46 bitrate= 605.0kbits/s speed=0.0188x elapsed=0:03:04.28    \nframe=  106 fps=0.6 q=48.7 size=     256KiB time=00:00:03.46 bitrate= 605.0kbits/s speed=0.0188x elapsed=0:03:04.80    \nframe=  107 fps=0.6 q=50.2 size=     256KiB time=00:00:03.50 bitrate= 599.3kbits/s speed=0.0189x elapsed=0:03:05.33    \nframe=  108 fps=0.6 q=49.9 size=     256KiB time=00:00:03.53 bitrate= 593.6kbits/s speed=0.019x elapsed=0:03:05.88    \nframe=  108 fps=0.6 q=49.9 size=     256KiB time=00:00:03.53 bitrate= 593.6kbits/s speed=0.019x elapsed=0:03:06.41    \nframe=  108 fps=0.6 q=49.9 size=     256KiB time=00:00:03.53 bitrate= 593.6kbits/s speed=0.0189x elapsed=0:03:06.92    \nframe=  108 fps=0.6 q=49.9 size=     256KiB time=00:00:03.53 bitrate= 593.6kbits/s speed=0.0188x elapsed=0:03:07.45    \nframe=  108 fps=0.6 q=49.9 size=     256KiB time=00:00:03.53 bitrate= 593.6kbits/s speed=0.0188x elapsed=0:03:07.97    \nframe=  109 fps=0.6 q=50.0 size=     256KiB time=00:00:03.56 bitrate= 588.1kbits/s speed=0.0189x elapsed=0:03:08.50    \nframe=  109 fps=0.6 q=50.0 size=     256KiB time=00:00:03.56 bitrate= 588.1kbits/s speed=0.0189x elapsed=0:03:09.03    \nframe=  109 fps=0.6 q=50.0 size=     256KiB time=00:00:03.56 bitrate= 588.1kbits/s speed=0.0188x elapsed=0:03:09.59    \nframe=  109 fps=0.6 q=50.0 size=     256KiB time=00:00:03.56 bitrate= 588.1kbits/s speed=0.0188x elapsed=0:03:10.13    \nframe=  109 fps=0.6 q=50.0 size=     256KiB time=00:00:03.56 bitrate= 588.1kbits/s speed=0.0187x elapsed=0:03:10.71    \nframe=  110 fps=0.6 q=47.8 size=     256KiB time=00:00:03.60 bitrate= 582.6kbits/s speed=0.0188x elapsed=0:03:11.32    \nframe=  110 fps=0.6 q=47.8 size=     256KiB time=00:00:03.60 bitrate= 582.6kbits/s speed=0.0188x elapsed=0:03:11.99    \nframe=  110 fps=0.6 q=47.8 size=     256KiB time=00:00:03.60 bitrate= 582.6kbits/s speed=0.0187x elapsed=0:03:12.61    \nframe=  111 fps=0.6 q=49.0 size=     256KiB time=00:00:03.63 bitrate= 577.3kbits/s speed=0.0188x elapsed=0:03:13.20    \nframe=  111 fps=0.6 q=49.0 size=     256KiB time=00:00:03.63 bitrate= 577.3kbits/s speed=0.0188x elapsed=0:03:13.76    \nframe=  111 fps=0.6 q=49.0 size=     256KiB time=00:00:03.63 bitrate= 577.3kbits/s speed=0.0187x elapsed=0:03:14.30    \nframe=  111 fps=0.6 q=49.0 size=     256KiB time=00:00:03.63 bitrate= 577.3kbits/s speed=0.0186x elapsed=0:03:14.89    \nframe=  111 fps=0.6 q=49.0 size=     256KiB time=00:00:03.63 bitrate= 577.3kbits/s speed=0.0186x elapsed=0:03:15.48    \nframe=  111 fps=0.6 q=49.0 size=     256KiB time=00:00:03.63 bitrate= 577.3kbits/s speed=0.0185x elapsed=0:03:16.06    \nframe=  111 fps=0.6 q=49.0 size=     256KiB time=00:00:03.63 bitrate= 577.3kbits/s speed=0.0185x elapsed=0:03:16.64    \nframe=  111 fps=0.6 q=49.0 size=     256KiB time=00:00:03.63 bitrate= 577.3kbits/s speed=0.0184x elapsed=0:03:17.21    \nframe=  112 fps=0.6 q=50.1 size=     256KiB time=00:00:03.66 bitrate= 572.0kbits/s speed=0.0185x elapsed=0:03:17.74    \nframe=  113 fps=0.6 q=50.1 size=     256KiB time=00:00:03.70 bitrate= 566.9kbits/s speed=0.0187x elapsed=0:03:18.28    \nframe=  113 fps=0.6 q=50.1 size=     256KiB time=00:00:03.70 bitrate= 566.9kbits/s speed=0.0186x elapsed=0:03:18.83    \nframe=  113 fps=0.6 q=50.1 size=     256KiB time=00:00:03.70 bitrate= 566.9kbits/s speed=0.0186x elapsed=0:03:19.42    \nframe=  113 fps=0.6 q=50.1 size=     256KiB time=00:00:03.70 bitrate= 566.9kbits/s speed=0.0185x elapsed=0:03:19.94    \nframe=  114 fps=0.6 q=50.5 size=     256KiB time=00:00:03.73 bitrate= 561.8kbits/s speed=0.0186x elapsed=0:03:20.50    \nframe=  114 fps=0.6 q=50.5 size=     256KiB time=00:00:03.73 bitrate= 561.8kbits/s speed=0.0186x elapsed=0:03:21.04    \nframe=  114 fps=0.6 q=50.5 size=     256KiB time=00:00:03.73 bitrate= 561.8kbits/s speed=0.0185x elapsed=0:03:21.58    \nframe=  114 fps=0.6 q=50.5 size=     256KiB time=00:00:03.73 bitrate= 561.8kbits/s speed=0.0185x elapsed=0:03:22.15    \nframe=  114 fps=0.6 q=50.5 size=     256KiB time=00:00:03.73 bitrate= 561.8kbits/s speed=0.0184x elapsed=0:03:22.71    \nframe=  115 fps=0.6 q=48.1 size=     256KiB time=00:00:03.76 bitrate= 556.9kbits/s speed=0.0185x elapsed=0:03:23.27    \nframe=  115 fps=0.6 q=48.1 size=     256KiB time=00:00:03.76 bitrate= 556.9kbits/s speed=0.0185x elapsed=0:03:23.81    \nframe=  115 fps=0.6 q=48.1 size=     256KiB time=00:00:03.76 bitrate= 556.9kbits/s speed=0.0184x elapsed=0:03:24.36    \nframe=  115 fps=0.6 q=48.1 size=     256KiB time=00:00:03.76 bitrate= 556.9kbits/s speed=0.0184x elapsed=0:03:24.89    \nframe=  115 fps=0.6 q=48.1 size=     256KiB time=00:00:03.76 bitrate= 556.9kbits/s speed=0.0183x elapsed=0:03:25.42    \nframe=  115 fps=0.6 q=48.1 size=     256KiB time=00:00:03.76 bitrate= 556.9kbits/s speed=0.0183x elapsed=0:03:25.93    \nframe=  116 fps=0.6 q=48.6 size=     256KiB time=00:00:03.80 bitrate= 552.0kbits/s speed=0.0184x elapsed=0:03:26.45    \nframe=  117 fps=0.6 q=50.1 size=     256KiB time=00:00:03.83 bitrate= 547.2kbits/s speed=0.0185x elapsed=0:03:26.99    \nframe=  117 fps=0.6 q=50.1 size=     256KiB time=00:00:03.83 bitrate= 547.2kbits/s speed=0.0185x elapsed=0:03:27.57    \nframe=  117 fps=0.6 q=50.1 size=     256KiB time=00:00:03.83 bitrate= 547.2kbits/s speed=0.0184x elapsed=0:03:28.08    \nframe=  117 fps=0.6 q=50.1 size=     256KiB time=00:00:03.83 bitrate= 547.2kbits/s speed=0.0184x elapsed=0:03:28.60    \nframe=  117 fps=0.6 q=50.1 size=     256KiB time=00:00:03.83 bitrate= 547.2kbits/s speed=0.0183x elapsed=0:03:29.13    \nframe=  117 fps=0.6 q=50.1 size=     256KiB time=00:00:03.83 bitrate= 547.2kbits/s speed=0.0183x elapsed=0:03:29.67    \nframe=  118 fps=0.6 q=49.4 size=     256KiB time=00:00:03.86 bitrate= 542.5kbits/s speed=0.0184x elapsed=0:03:30.18    \nframe=  118 fps=0.6 q=49.4 size=     256KiB time=00:00:03.86 bitrate= 542.5kbits/s speed=0.0183x elapsed=0:03:30.74    \nframe=  119 fps=0.6 q=49.9 size=     256KiB time=00:00:03.90 bitrate= 537.8kbits/s speed=0.0185x elapsed=0:03:31.28    \nframe=  119 fps=0.6 q=49.9 size=     256KiB time=00:00:03.90 bitrate= 537.8kbits/s speed=0.0184x elapsed=0:03:31.80    \nframe=  119 fps=0.6 q=49.9 size=     256KiB time=00:00:03.90 bitrate= 537.8kbits/s speed=0.0184x elapsed=0:03:32.33    \nframe=  120 fps=0.6 q=47.9 size=     256KiB time=00:00:03.93 bitrate= 533.3kbits/s speed=0.0185x elapsed=0:03:32.86    \nframe=  120 fps=0.6 q=47.9 size=     256KiB time=00:00:03.93 bitrate= 533.3kbits/s speed=0.0184x elapsed=0:03:33.38    \nframe=  120 fps=0.6 q=47.9 size=     256KiB time=00:00:03.93 bitrate= 533.3kbits/s speed=0.0184x elapsed=0:03:33.93    \nframe=  120 fps=0.6 q=47.9 size=     256KiB time=00:00:03.93 bitrate= 533.3kbits/s speed=0.0183x elapsed=0:03:34.44    \nframe=  121 fps=0.6 q=48.6 size=     256KiB time=00:00:03.96 bitrate= 528.8kbits/s speed=0.0185x elapsed=0:03:34.96    \nframe=  121 fps=0.6 q=48.6 size=     256KiB time=00:00:03.96 bitrate= 528.8kbits/s speed=0.0184x elapsed=0:03:35.49    \nframe=  121 fps=0.6 q=48.6 size=     256KiB time=00:00:03.96 bitrate= 528.8kbits/s speed=0.0184x elapsed=0:03:36.04    \nframe=  121 fps=0.6 q=48.6 size=     256KiB time=00:00:03.96 bitrate= 528.8kbits/s speed=0.0183x elapsed=0:03:36.58    \nframe=  122 fps=0.6 q=50.3 size=     256KiB time=00:00:04.00 bitrate= 524.4kbits/s speed=0.0184x elapsed=0:03:37.14    \nframe=  122 fps=0.6 q=50.3 size=     256KiB time=00:00:04.00 bitrate= 524.4kbits/s speed=0.0184x elapsed=0:03:37.69    \nframe=  122 fps=0.6 q=50.3 size=     256KiB time=00:00:04.00 bitrate= 524.4kbits/s speed=0.0183x elapsed=0:03:38.23    \nframe=  122 fps=0.6 q=50.3 size=     256KiB time=00:00:04.00 bitrate= 524.4kbits/s speed=0.0183x elapsed=0:03:38.76    \nframe=  122 fps=0.6 q=50.3 size=     256KiB time=00:00:04.00 bitrate= 524.4kbits/s speed=0.0182x elapsed=0:03:39.27    \nframe=  122 fps=0.6 q=50.3 size=     256KiB time=00:00:04.00 bitrate= 524.4kbits/s speed=0.0182x elapsed=0:03:39.79    \nframe=  122 fps=0.6 q=50.3 size=     256KiB time=00:00:04.00 bitrate= 524.4kbits/s speed=0.0182x elapsed=0:03:40.33    \nframe=  123 fps=0.6 q=50.2 size=     256KiB time=00:00:04.03 bitrate= 520.0kbits/s speed=0.0183x elapsed=0:03:40.88    \nframe=  123 fps=0.6 q=50.2 size=     256KiB time=00:00:04.03 bitrate= 520.0kbits/s speed=0.0182x elapsed=0:03:41.41    \nframe=  123 fps=0.6 q=50.2 size=     256KiB time=00:00:04.03 bitrate= 520.0kbits/s speed=0.0182x elapsed=0:03:41.97    \nframe=  123 fps=0.6 q=50.2 size=     256KiB time=00:00:04.03 bitrate= 520.0kbits/s speed=0.0181x elapsed=0:03:42.50    \nframe=  123 fps=0.6 q=50.2 size=     256KiB time=00:00:04.03 bitrate= 520.0kbits/s speed=0.0181x elapsed=0:03:43.02    \nframe=  124 fps=0.6 q=47.6 size=     256KiB time=00:00:04.06 bitrate= 515.8kbits/s speed=0.0182x elapsed=0:03:43.57    \nframe=  124 fps=0.6 q=47.6 size=     256KiB time=00:00:04.06 bitrate= 515.8kbits/s speed=0.0181x elapsed=0:03:44.10    \nframe=  124 fps=0.6 q=47.6 size=     256KiB time=00:00:04.06 bitrate= 515.8kbits/s speed=0.0181x elapsed=0:03:44.61    \nframe=  124 fps=0.6 q=47.6 size=     256KiB time=00:00:04.06 bitrate= 515.8kbits/s speed=0.0181x elapsed=0:03:45.15    \nframe=  124 fps=0.5 q=47.6 size=     256KiB time=00:00:04.06 bitrate= 515.8kbits/s speed=0.018x elapsed=0:03:45.67    \nframe=  124 fps=0.5 q=47.6 size=     256KiB time=00:00:04.06 bitrate= 515.8kbits/s speed=0.018x elapsed=0:03:46.21    \nframe=  125 fps=0.6 q=48.3 size=     256KiB time=00:00:04.10 bitrate= 511.6kbits/s speed=0.0181x elapsed=0:03:46.74    \nframe=  125 fps=0.6 q=48.3 size=     256KiB time=00:00:04.10 bitrate= 511.6kbits/s speed=0.018x elapsed=0:03:47.26    \nframe=  125 fps=0.5 q=48.3 size=     256KiB time=00:00:04.10 bitrate= 511.6kbits/s speed=0.018x elapsed=0:03:47.80    \nframe=  125 fps=0.5 q=48.3 size=     256KiB time=00:00:04.10 bitrate= 511.6kbits/s speed=0.018x elapsed=0:03:48.35    \nframe=  125 fps=0.5 q=48.3 size=     256KiB time=00:00:04.10 bitrate= 511.6kbits/s speed=0.0179x elapsed=0:03:48.89    \nframe=  126 fps=0.5 q=50.1 size=     256KiB time=00:00:04.13 bitrate= 507.5kbits/s speed=0.018x elapsed=0:03:49.42    \nframe=  126 fps=0.5 q=50.1 size=     256KiB time=00:00:04.13 bitrate= 507.5kbits/s speed=0.018x elapsed=0:03:49.95    \nframe=  126 fps=0.5 q=50.1 size=     256KiB time=00:00:04.13 bitrate= 507.5kbits/s speed=0.0179x elapsed=0:03:50.47    \nframe=  126 fps=0.5 q=50.1 size=     256KiB time=00:00:04.13 bitrate= 507.5kbits/s speed=0.0179x elapsed=0:03:51.00    \nframe=  126 fps=0.5 q=50.1 size=     256KiB time=00:00:04.13 bitrate= 507.5kbits/s speed=0.0179x elapsed=0:03:51.54    \nframe=  127 fps=0.5 q=49.4 size=     256KiB time=00:00:04.16 bitrate= 503.4kbits/s speed=0.018x elapsed=0:03:52.05    \nframe=  127 fps=0.5 q=49.4 size=     256KiB time=00:00:04.16 bitrate= 503.4kbits/s speed=0.0179x elapsed=0:03:52.57    \nframe=  127 fps=0.5 q=49.4 size=     256KiB time=00:00:04.16 bitrate= 503.4kbits/s speed=0.0179x elapsed=0:03:53.09    \nframe=  128 fps=0.5 q=47.7 size=     256KiB time=00:00:04.20 bitrate= 499.4kbits/s speed=0.018x elapsed=0:03:53.61    \nframe=  128 fps=0.5 q=47.7 size=     256KiB time=00:00:04.20 bitrate= 499.4kbits/s speed=0.0179x elapsed=0:03:54.14    \nframe=  128 fps=0.5 q=47.7 size=     256KiB time=00:00:04.20 bitrate= 499.4kbits/s speed=0.0179x elapsed=0:03:54.66    \nframe=  128 fps=0.5 q=47.7 size=     256KiB time=00:00:04.20 bitrate= 499.4kbits/s speed=0.0179x elapsed=0:03:55.21    \nframe=  129 fps=0.5 q=48.3 size=     256KiB time=00:00:04.23 bitrate= 495.5kbits/s speed=0.018x elapsed=0:03:55.74    \nframe=  130 fps=0.6 q=49.7 size=     256KiB time=00:00:04.26 bitrate= 491.6kbits/s speed=0.0181x elapsed=0:03:56.25    \nframe=  130 fps=0.5 q=49.7 size=     256KiB time=00:00:04.26 bitrate= 491.6kbits/s speed=0.018x elapsed=0:03:56.78    \nframe=  131 fps=0.6 q=49.6 size=     512KiB time=00:00:04.30 bitrate= 975.5kbits/s speed=0.0181x elapsed=0:03:57.30    \nframe=  131 fps=0.6 q=49.6 size=     512KiB time=00:00:04.30 bitrate= 975.5kbits/s speed=0.0181x elapsed=0:03:57.83    \nframe=  131 fps=0.5 q=49.6 size=     512KiB time=00:00:04.30 bitrate= 975.5kbits/s speed=0.018x elapsed=0:03:58.35    \nframe=  131 fps=0.5 q=49.6 size=     512KiB time=00:00:04.30 bitrate= 975.5kbits/s speed=0.018x elapsed=0:03:58.89    \nframe=  131 fps=0.5 q=49.6 size=     512KiB time=00:00:04.30 bitrate= 975.5kbits/s speed=0.018x elapsed=0:03:59.44    \nframe=  132 fps=0.6 q=49.7 size=     512KiB time=00:00:04.33 bitrate= 968.0kbits/s speed=0.0181x elapsed=0:03:59.97    \nframe=  132 fps=0.5 q=49.7 size=     512KiB time=00:00:04.33 bitrate= 968.0kbits/s speed=0.018x elapsed=0:04:00.48    \nframe=  132 fps=0.5 q=49.7 size=     512KiB time=00:00:04.33 bitrate= 968.0kbits/s speed=0.018x elapsed=0:04:01.02    \nframe=  132 fps=0.5 q=49.7 size=     512KiB time=00:00:04.33 bitrate= 968.0kbits/s speed=0.0179x elapsed=0:04:01.54    \nframe=  133 fps=0.5 q=47.5 size=     512KiB time=00:00:04.36 bitrate= 960.6kbits/s speed=0.018x elapsed=0:04:02.05    \nframe=  133 fps=0.5 q=47.5 size=     512KiB time=00:00:04.36 bitrate= 960.6kbits/s speed=0.018x elapsed=0:04:02.58    \nframe=  133 fps=0.5 q=47.5 size=     512KiB time=00:00:04.36 bitrate= 960.6kbits/s speed=0.018x elapsed=0:04:03.10    \nframe=  133 fps=0.5 q=47.5 size=     512KiB time=00:00:04.36 bitrate= 960.6kbits/s speed=0.0179x elapsed=0:04:03.61    \nframe=  133 fps=0.5 q=47.5 size=     512KiB time=00:00:04.36 bitrate= 960.6kbits/s speed=0.0179x elapsed=0:04:04.13    \nframe=  134 fps=0.5 q=48.5 size=     512KiB time=00:00:04.40 bitrate= 953.3kbits/s speed=0.018x elapsed=0:04:04.65    \nframe=  134 fps=0.5 q=48.5 size=     512KiB time=00:00:04.40 bitrate= 953.3kbits/s speed=0.0179x elapsed=0:04:05.17    \nframe=  134 fps=0.5 q=48.5 size=     512KiB time=00:00:04.40 bitrate= 953.3kbits/s speed=0.0179x elapsed=0:04:05.69    \nframe=  135 fps=0.5 q=49.5 size=     512KiB time=00:00:04.43 bitrate= 946.2kbits/s speed=0.018x elapsed=0:04:06.21    \nframe=  135 fps=0.5 q=49.5 size=     512KiB time=00:00:04.43 bitrate= 946.2kbits/s speed=0.018x elapsed=0:04:06.74    \nframe=  135 fps=0.5 q=49.5 size=     512KiB time=00:00:04.43 bitrate= 946.2kbits/s speed=0.0179x elapsed=0:04:07.25    \nframe=  135 fps=0.5 q=49.5 size=     512KiB time=00:00:04.43 bitrate= 946.2kbits/s speed=0.0179x elapsed=0:04:07.79    \nframe=  136 fps=0.5 q=49.7 size=     512KiB time=00:00:04.46 bitrate= 939.1kbits/s speed=0.018x elapsed=0:04:08.31    \nframe=  136 fps=0.5 q=49.7 size=     512KiB time=00:00:04.46 bitrate= 939.1kbits/s speed=0.018x elapsed=0:04:08.83    \nframe=  136 fps=0.5 q=49.7 size=     512KiB time=00:00:04.46 bitrate= 939.1kbits/s speed=0.0179x elapsed=0:04:09.39    \nframe=  136 fps=0.5 q=49.7 size=     512KiB time=00:00:04.46 bitrate= 939.1kbits/s speed=0.0179x elapsed=0:04:09.93    \nframe=  136 fps=0.5 q=49.7 size=     512KiB time=00:00:04.46 bitrate= 939.1kbits/s speed=0.0178x elapsed=0:04:10.44    \nframe=  137 fps=0.5 q=47.5 size=     512KiB time=00:00:04.50 bitrate= 932.1kbits/s speed=0.0179x elapsed=0:04:10.96    \nframe=  138 fps=0.5 q=47.7 size=     512KiB time=00:00:04.53 bitrate= 925.3kbits/s speed=0.018x elapsed=0:04:11.48    \nframe=  138 fps=0.5 q=47.7 size=     512KiB time=00:00:04.53 bitrate= 925.3kbits/s speed=0.018x elapsed=0:04:11.99    \nframe=  139 fps=0.6 q=49.8 size=     512KiB time=00:00:04.56 bitrate= 918.5kbits/s speed=0.0181x elapsed=0:04:12.52    \nframe=  139 fps=0.5 q=49.8 size=     512KiB time=00:00:04.56 bitrate= 918.5kbits/s speed=0.018x elapsed=0:04:13.07    \nframe=  139 fps=0.5 q=49.8 size=     512KiB time=00:00:04.56 bitrate= 918.5kbits/s speed=0.018x elapsed=0:04:13.66    \nframe=  139 fps=0.5 q=49.8 size=     512KiB time=00:00:04.56 bitrate= 918.5kbits/s speed=0.018x elapsed=0:04:14.21    \nframe=  140 fps=0.5 q=49.6 size=     512KiB time=00:00:04.60 bitrate= 911.9kbits/s speed=0.0181x elapsed=0:04:14.74    \nframe=  140 fps=0.5 q=49.6 size=     512KiB time=00:00:04.60 bitrate= 911.9kbits/s speed=0.018x elapsed=0:04:15.26    \nframe=  141 fps=0.6 q=49.7 size=     512KiB time=00:00:04.63 bitrate= 905.3kbits/s speed=0.0181x elapsed=0:04:15.84    \nframe=  141 fps=0.6 q=49.7 size=     512KiB time=00:00:04.63 bitrate= 905.3kbits/s speed=0.0181x elapsed=0:04:16.35    \nframe=  141 fps=0.5 q=49.7 size=     512KiB time=00:00:04.63 bitrate= 905.3kbits/s speed=0.018x elapsed=0:04:16.88    \nframe=  141 fps=0.5 q=49.7 size=     512KiB time=00:00:04.63 bitrate= 905.3kbits/s speed=0.018x elapsed=0:04:17.41    \nframe=  142 fps=0.6 q=47.7 size=     512KiB time=00:00:04.66 bitrate= 898.9kbits/s speed=0.0181x elapsed=0:04:17.95    \nframe=  142 fps=0.5 q=47.7 size=     512KiB time=00:00:04.66 bitrate= 898.9kbits/s speed=0.0181x elapsed=0:04:18.49    \nframe=  143 fps=0.6 q=48.4 size=     512KiB time=00:00:04.70 bitrate= 892.5kbits/s speed=0.0181x elapsed=0:04:19.01    \nframe=  143 fps=0.6 q=48.4 size=     512KiB time=00:00:04.70 bitrate= 892.5kbits/s speed=0.0181x elapsed=0:04:19.54    \nframe=  144 fps=0.6 q=50.3 size=     512KiB time=00:00:04.73 bitrate= 886.2kbits/s speed=0.0182x elapsed=0:04:20.07    \nframe=  144 fps=0.6 q=50.3 size=     512KiB time=00:00:04.73 bitrate= 886.2kbits/s speed=0.0182x elapsed=0:04:20.64    \nframe=  144 fps=0.6 q=50.3 size=     512KiB time=00:00:04.73 bitrate= 886.2kbits/s speed=0.0181x elapsed=0:04:21.17    \nframe=  144 fps=0.6 q=50.3 size=     512KiB time=00:00:04.73 bitrate= 886.2kbits/s speed=0.0181x elapsed=0:04:21.69    \nframe=  144 fps=0.5 q=50.3 size=     512KiB time=00:00:04.73 bitrate= 886.2kbits/s speed=0.0181x elapsed=0:04:22.22    \nframe=  145 fps=0.6 q=49.9 size=     512KiB time=00:00:04.76 bitrate= 880.0kbits/s speed=0.0181x elapsed=0:04:22.74    \nframe=  145 fps=0.6 q=49.9 size=     512KiB time=00:00:04.76 bitrate= 880.0kbits/s speed=0.0181x elapsed=0:04:23.26    \nframe=  146 fps=0.6 q=48.0 size=     512KiB time=00:00:04.80 bitrate= 873.9kbits/s speed=0.0182x elapsed=0:04:23.77    \nframe=  146 fps=0.6 q=48.0 size=     512KiB time=00:00:04.80 bitrate= 873.9kbits/s speed=0.0182x elapsed=0:04:24.29    \nframe=  146 fps=0.6 q=48.0 size=     512KiB time=00:00:04.80 bitrate= 873.9kbits/s speed=0.0181x elapsed=0:04:24.82    \nframe=  147 fps=0.6 q=47.9 size=     512KiB time=00:00:04.83 bitrate= 867.9kbits/s speed=0.0182x elapsed=0:04:25.35    \nframe=  148 fps=0.6 q=49.3 size=     512KiB time=00:00:04.86 bitrate= 861.9kbits/s speed=0.0183x elapsed=0:04:25.88    \nframe=  149 fps=0.6 q=49.7 size=     512KiB time=00:00:04.90 bitrate= 856.1kbits/s speed=0.0184x elapsed=0:04:26.39    \nframe=  149 fps=0.6 q=49.7 size=     512KiB time=00:00:04.90 bitrate= 856.1kbits/s speed=0.0184x elapsed=0:04:26.91    \n[mp4 @ 000001657529aa40] Starting second pass: moving the moov atom to the beginning of the file\n[out#0/mp4 @ 0000016575f9f040] video:598KiB audio:0KiB subtitle:0KiB other streams:0KiB global headers:2KiB muxing overhead: 0.841701%\nframe=  150 fps=0.6 q=50.3 Lsize=     603KiB time=00:00:04.93 bitrate=1000.9kbits/s speed=0.0185x elapsed=0:04:27.03    \nx265 [info]: frame I:      2, Avg QP:47.65  kb/s: 1302.84 \nx265 [info]: frame P:     32, Avg QP:48.99  kb/s: 1258.99 \nx265 [info]: frame B:    116, Avg QP:50.14  kb/s: 895.39  \nx265 [info]: Weighted P-Frames: Y:0.0% UV:0.0%\n\nencoded 150 frames in 266.78s (0.56 fps), 978.39 kb/s, Avg QP:49.86\n",
  "seconds": 267.4910316467285,
  "probe_out": {}
}